HIERARCHY
ROOT Hips
{
	OFFSET 0.000000 71.427986 0.000000
	CHANNELS 6 Xposition Yposition Zposition Xrotation Yrotation Zrotation
	JOINT Pelvis
	{
		OFFSET 0.000000 0.000000 0.000000
		CHANNELS 3 Xrotation Yrotation Zrotation
		JOINT LeftUpLeg
		{
			OFFSET 6.797100 -2.508499 -1.318700
			CHANNELS 3 Xrotation Yrotation Zrotation
			JOINT LeftLeg
			{
				OFFSET 0.069008 -29.241863 0.690200
				CHANNELS 3 Xrotation Yrotation Zrotation
				JOINT LeftFoot
				{
					OFFSET -0.069008 -29.568123 -0.266800
					CHANNELS 3 Xrotation Yrotation Zrotation
					JOINT LeftToeBase
					{
						OFFSET 3.145500 -8.631000 16.059900
						CHANNELS 3 Xrotation Yrotation Zrotation
						End Site
						{
							OFFSET 0.000000 18.501587 0.000000
						}
					}
				}
			}
			JOINT Left_ShortSleeve
			{
				OFFSET 0.265923 -10.480953 1.153800
				CHANNELS 3 Xrotation Yrotation Zrotation
				End Site
				{
					OFFSET 1.725763 19.823879 0.000000
				}
			}
		}
		JOINT RightUpLeg
		{
			OFFSET -6.797100 -2.508499 -1.318700
			CHANNELS 3 Xrotation Yrotation Zrotation
			JOINT RightLeg
			{
				OFFSET -0.082453 -29.241932 0.688000
				CHANNELS 3 Xrotation Yrotation Zrotation
				JOINT RightFoot
				{
					OFFSET 0.082453 -29.568058 -0.264600
					CHANNELS 3 Xrotation Yrotation Zrotation
					JOINT RightToeBase
					{
						OFFSET -3.115300 -8.682800 16.113400
						CHANNELS 3 Xrotation Yrotation Zrotation
						End Site
						{
							OFFSET 0.000000 18.567114 0.000000
						}
					}
				}
			}
			JOINT Right_ShortSleeve
			{
				OFFSET -0.265923 -10.480953 1.153800
				CHANNELS 3 Xrotation Yrotation Zrotation
				End Site
				{
					OFFSET -1.725766 19.823910 0.000000
				}
			}
		}
	}
	JOINT Spine
	{
		OFFSET 0.000000 13.368103 0.470500
		CHANNELS 3 Xrotation Yrotation Zrotation
		JOINT Spine1
		{
			OFFSET 0.147000 13.837402 0.538800
			CHANNELS 3 Xrotation Yrotation Zrotation
			JOINT Spine2
			{
				OFFSET 0.168000 16.242897 -1.435500
				CHANNELS 3 Xrotation Yrotation Zrotation
				JOINT Neck
				{
					OFFSET 0.217200 18.631500 -1.679100
					CHANNELS 3 Xrotation Yrotation Zrotation
					JOINT Head
					{
						OFFSET 0.000000 6.599396 1.385900
						CHANNELS 3 Xrotation Yrotation Zrotation
						JOINT Hat
						{
							OFFSET -0.532200 27.220596 -10.096100
							CHANNELS 3 Xrotation Yrotation Zrotation
							End Site
							{
								OFFSET 0.000000 22.029861 0.000000
							}
						}
						JOINT HairD
						{
							OFFSET -10.777400 17.437393 -1.325900
							CHANNELS 3 Xrotation Yrotation Zrotation
							JOINT HairD1
							{
								OFFSET -3.290299 -11.051193 1.062200
								CHANNELS 3 Xrotation Yrotation Zrotation
								End Site
								{
									OFFSET 0.000000 11.579437 0.000000
								}
							}
						}
						JOINT HairB
						{
							OFFSET -10.777400 17.437393 1.467900
							CHANNELS 3 Xrotation Yrotation Zrotation
							JOINT HairB1
							{
								OFFSET -1.561200 -12.956299 3.590200
								CHANNELS 3 Xrotation Yrotation Zrotation
								End Site
								{
									OFFSET 0.000000 13.534866 0.000000
								}
							}
						}
						JOINT HairA
						{
							OFFSET 9.713100 17.437393 1.467900
							CHANNELS 3 Xrotation Yrotation Zrotation
							JOINT HairA1
							{
								OFFSET 1.561200 -12.956299 3.590200
								CHANNELS 3 Xrotation Yrotation Zrotation
								End Site
								{
									OFFSET 0.000000 13.534866 0.000000
								}
							}
						}
						JOINT HairC
						{
							OFFSET 9.713100 17.437393 -1.325900
							CHANNELS 3 Xrotation Yrotation Zrotation
							JOINT HairC1
							{
								OFFSET 3.290300 -11.051193 1.062200
								CHANNELS 3 Xrotation Yrotation Zrotation
								End Site
								{
									OFFSET 0.000000 11.579437 0.000000
								}
							}
						}
					}
				}
				JOINT LeftShoulder
				{
					OFFSET 5.101800 15.108002 -2.763700
					CHANNELS 3 Xrotation Yrotation Zrotation
					JOINT LeftArm
					{
						OFFSET 9.825497 2.506317 -1.597400
						CHANNELS 3 Xrotation Yrotation Zrotation
						JOINT LeftForeArm
						{
							OFFSET 21.966244 0.000000 0.000000
							CHANNELS 3 Xrotation Yrotation Zrotation
							JOINT LeftHand
							{
								OFFSET 33.879036 0.000000 0.000000
								CHANNELS 3 Xrotation Yrotation Zrotation
								JOINT LeftHandThumb1
								{
									OFFSET 6.715286 -2.359680 3.363841
									CHANNELS 3 Xrotation Yrotation Zrotation
									JOINT LeftHandThumb2
									{
										OFFSET 2.507072 -1.447464 1.447461
										CHANNELS 3 Xrotation Yrotation Zrotation
										JOINT LeftHandThumb3
										{
											OFFSET 2.898338 -1.673355 1.673357
											CHANNELS 3 Xrotation Yrotation Zrotation
											End Site
											{
												OFFSET -0.295959 3.727692 -0.131651
											}
										}
									}
								}
								JOINT LeftHandIndex1
								{
									OFFSET 14.190811 -0.254547 3.840278
									CHANNELS 3 Xrotation Yrotation Zrotation
									JOINT LeftHandIndex2
									{
										OFFSET 3.551727 0.000000 -0.000000
										CHANNELS 3 Xrotation Yrotation Zrotation
										JOINT LeftHandIndex3
										{
											OFFSET 2.894196 0.000000 0.000000
											CHANNELS 3 Xrotation Yrotation Zrotation
											End Site
											{
												OFFSET -1.000603 2.690872 0.366626
											}
										}
									}
								}
								JOINT LeftHandMiddle1
								{
									OFFSET 13.776489 0.000000 0.000000
									CHANNELS 3 Xrotation Yrotation Zrotation
									JOINT LeftHandMiddle2
									{
										OFFSET 3.438232 0.000000 0.000000
										CHANNELS 3 Xrotation Yrotation Zrotation
										JOINT LeftHandMiddle3
										{
											OFFSET 3.691551 0.000000 0.000000
											CHANNELS 3 Xrotation Yrotation Zrotation
											End Site
											{
												OFFSET -1.082298 3.499527 0.457670
											}
										}
									}
								}
								JOINT LeftHandRing1
								{
									OFFSET 13.966164 -0.268127 -3.067488
									CHANNELS 3 Xrotation Yrotation Zrotation
									JOINT LeftHandRing2
									{
										OFFSET 3.162567 0.000000 0.000000
										CHANNELS 3 Xrotation Yrotation Zrotation
										JOINT LeftHandRing3
										{
											OFFSET 3.324348 0.000000 0.000000
											CHANNELS 3 Xrotation Yrotation Zrotation
											End Site
											{
												OFFSET -0.861900 3.184998 0.405154
											}
										}
									}
								}
								JOINT LeftHandPinky1
								{
									OFFSET 13.131393 -0.168503 -5.746925
									CHANNELS 3 Xrotation Yrotation Zrotation
									JOINT LeftHandPinky2
									{
										OFFSET 2.849182 0.000000 0.000000
										CHANNELS 3 Xrotation Yrotation Zrotation
										JOINT LeftHandPinky3
										{
											OFFSET 2.805038 0.000000 0.000000
											CHANNELS 3 Xrotation Yrotation Zrotation
											End Site
											{
												OFFSET -0.882500 2.642609 0.325652
											}
										}
									}
								}
							}
							JOINT Left_Sleeve
							{
								OFFSET 6.592125 -0.646545 0.805568
								CHANNELS 3 Xrotation Yrotation Zrotation
								End Site
								{
									OFFSET -0.000179 20.275787 -0.000000
								}
							}
						}
					}
				}
				JOINT RightShoulder
				{
					OFFSET -5.731700 15.108002 -2.763700
					CHANNELS 3 Xrotation Yrotation Zrotation
					JOINT RightArm
					{
						OFFSET -9.825497 2.506317 -1.597400
						CHANNELS 3 Xrotation Yrotation Zrotation
						JOINT RightForeArm
						{
							OFFSET -21.966242 0.000000 0.000000
							CHANNELS 3 Xrotation Yrotation Zrotation
							JOINT RightHand
							{
								OFFSET -33.879032 0.000000 0.000000
								CHANNELS 3 Xrotation Yrotation Zrotation
								JOINT RightHandThumb1
								{
									OFFSET -6.715286 -2.359680 3.363841
									CHANNELS 3 Xrotation Yrotation Zrotation
									JOINT RightHandThumb2
									{
										OFFSET -2.507072 -1.447464 1.447461
										CHANNELS 3 Xrotation Yrotation Zrotation
										JOINT RightHandThumb3
										{
											OFFSET -2.898338 -1.673355 1.673357
											CHANNELS 3 Xrotation Yrotation Zrotation
											End Site
											{
												OFFSET 0.295959 3.727692 -0.131651
											}
										}
									}
								}
								JOINT RightHandIndex1
								{
									OFFSET -14.190811 -0.254547 3.840278
									CHANNELS 3 Xrotation Yrotation Zrotation
									JOINT RightHandIndex2
									{
										OFFSET -3.551727 0.000000 -0.000000
										CHANNELS 3 Xrotation Yrotation Zrotation
										JOINT RightHandIndex3
										{
											OFFSET -2.894196 0.000000 0.000000
											CHANNELS 3 Xrotation Yrotation Zrotation
											End Site
											{
												OFFSET 1.000603 2.690872 0.366626
											}
										}
									}
								}
								JOINT RightHandMiddle1
								{
									OFFSET -13.776489 0.000000 0.000000
									CHANNELS 3 Xrotation Yrotation Zrotation
									JOINT RightHandMiddle2
									{
										OFFSET -3.438232 0.000000 0.000000
										CHANNELS 3 Xrotation Yrotation Zrotation
										JOINT RightHandMiddle3
										{
											OFFSET -3.691551 0.000000 0.000000
											CHANNELS 3 Xrotation Yrotation Zrotation
											End Site
											{
												OFFSET 1.082298 3.499527 0.457670
											}
										}
									}
								}
								JOINT RightHandRing1
								{
									OFFSET -13.966164 -0.268127 -3.067488
									CHANNELS 3 Xrotation Yrotation Zrotation
									JOINT RightHandRing2
									{
										OFFSET -3.162567 0.000000 0.000000
										CHANNELS 3 Xrotation Yrotation Zrotation
										JOINT RightHandRing3
										{
											OFFSET -3.324348 0.000000 0.000000
											CHANNELS 3 Xrotation Yrotation Zrotation
											End Site
											{
												OFFSET 0.861900 3.184998 0.405154
											}
										}
									}
								}
								JOINT RightHandPinky1
								{
									OFFSET -13.131393 -0.168503 -5.746925
									CHANNELS 3 Xrotation Yrotation Zrotation
									JOINT RightHandPinky2
									{
										OFFSET -2.849182 0.000000 0.000000
										CHANNELS 3 Xrotation Yrotation Zrotation
										JOINT RightHandPinky3
										{
											OFFSET -2.805038 0.000000 0.000000
											CHANNELS 3 Xrotation Yrotation Zrotation
											End Site
											{
												OFFSET 0.882500 2.642609 0.325652
											}
										}
									}
								}
							}
							JOINT Right_Sleeve
							{
								OFFSET -6.592125 -0.646545 0.805568
								CHANNELS 3 Xrotation Yrotation Zrotation
								End Site
								{
									OFFSET 0.000179 20.275787 -0.000000
								}
							}
						}
					}
				}
				JOINT Bind_Right_JacketString
				{
					OFFSET -3.534800 11.969597 7.200700
					CHANNELS 3 Xrotation Yrotation Zrotation
					JOINT Bind_Right_JacketString1
					{
						OFFSET -0.319900 -6.102600 2.794100
						CHANNELS 3 Xrotation Yrotation Zrotation
						End Site
						{
							OFFSET 0.000000 6.719452 0.000000
						}
					}
				}
				JOINT Bind_Left_JacketString
				{
					OFFSET 2.904800 11.969597 7.200700
					CHANNELS 3 Xrotation Yrotation Zrotation
					JOINT Bind_Left_JacketString1
					{
						OFFSET 0.364800 -5.904503 3.186800
						CHANNELS 3 Xrotation Yrotation Zrotation
						End Site
						{
							OFFSET 0.000000 6.719513 0.000000
						}
					}
				}
				JOINT HairE
				{
					OFFSET 5.915200 17.612701 -11.592200
					CHANNELS 3 Xrotation Yrotation Zrotation
					JOINT HairE1
					{
						OFFSET 0.289200 -7.171898 -1.284500
						CHANNELS 3 Xrotation Yrotation Zrotation
						End Site
						{
							OFFSET 0.000000 7.291756 0.000000
						}
					}
				}
				JOINT HairF
				{
					OFFSET -0.864800 17.612701 -11.592200
					CHANNELS 3 Xrotation Yrotation Zrotation
					JOINT HairF1
					{
						OFFSET 0.000000 -14.087097 -2.127501
						CHANNELS 3 Xrotation Yrotation Zrotation
						End Site
						{
							OFFSET 0.000000 14.246841 0.000000
						}
					}
				}
				JOINT HairG
				{
					OFFSET -8.087700 17.612701 -11.592200
					CHANNELS 3 Xrotation Yrotation Zrotation
					JOINT HairG1
					{
						OFFSET -0.293600 -6.081398 -0.910100
						CHANNELS 3 Xrotation Yrotation Zrotation
						End Site
						{
							OFFSET 0.000000 6.156120 0.000000
						}
					}
				}
			}
		}
	}
	JOINT Pouch
	{
		OFFSET 0.000000 4.394501 10.847300
		CHANNELS 3 Xrotation Yrotation Zrotation
		End Site
		{
			OFFSET 0.000000 21.880577 0.000000
		}
	}
	JOINT Bag
	{
		OFFSET -13.229000 4.813004 -0.593300
		CHANNELS 3 Xrotation Yrotation Zrotation
		End Site
		{
			OFFSET 0.000000 21.880577 0.000000
		}
	}
	JOINT OccupyGuyFacialAnim_Joint
	{
		OFFSET 1.000000 -70.206398 -1.655000
		CHANNELS 3 Xrotation Yrotation Zrotation
		End Site
		{
			OFFSET 0.000000 21.880577 0.000000
		}
	}
}
MOTION
Frames: 4
Frame Time: 0.033333
-0.196661 69.933525 1.488342 -2.387243 0.044639 -2.085944 -0.000000 0.000000 0.000000 -27.284953 4.373594 5.657964 61.449313 1.461707 0.577067 -5.012704 0.703496 -7.711587 -0.000001 0.000001 -0.000001 -0.000001 -0.000001 -0.000000 -6.340346 -4.403335 6.156795 26.527939 6.835985 1.152218 -14.793824 1.858571 -9.794172 -0.000000 0.000000 0.000000 -0.000000 0.000000 0.000001 14.317936 1.101238 2.560644 -4.344023 0.844258 -0.932464 -4.329084 0.772027 -1.030093 -0.099543 -1.689892 2.622666 -5.841262 -0.460643 -1.540139 -0.000000 -0.000000 -0.000000 -0.000000 -0.000000 -0.000000 -0.000000 -0.000000 -0.000000 -0.000000 -0.000000 0.000000 -0.000000 0.000000 0.000000 -0.000000 -0.000000 0.000000 -0.000000 0.000000 0.000000 -0.000000 -0.000000 -0.000000 -0.000000 -0.000000 -0.000000 2.370572 2.599460 -1.341556 -3.621929 -8.176776 -74.042160 12.004551 -10.521451 -9.011754 -0.378895 1.905168 11.578283 -4.982882 13.405859 11.311774 3.517574 8.486186 1.851091 0.000000 0.000003 0.000000 0.376703 -6.145567 -25.285055 -0.034529 0.056848 -22.183838 -0.000000 0.000001 0.000002 -0.682880 -5.541187 -29.068401 0.007531 0.005059 -24.675120 0.000003 0.000001 0.000004 -1.915536 -6.193604 -34.198586 -0.007371 0.017898 -28.105245 0.000003 0.000001 0.000001 -3.466229 -6.910098 -39.124625 -0.007320 0.010116 -31.381564 -0.000002 -0.000002 0.000001 0.000004 -0.000000 -0.000000 3.460699 0.236098 4.393020 -1.477539 25.831449 70.378515 6.809925 19.846911 4.731997 -19.537618 0.957978 -12.165124 -0.782987 -20.555721 -5.075686 4.540476 -11.071028 -2.316091 0.000001 -0.000001 0.000001 0.748712 1.485551 23.202861 -0.036704 -0.055002 19.908345 -0.000000 0.000001 -0.000001 -0.268004 2.185024 25.525045 -0.000279 0.002703 21.457813 0.000004 0.000003 0.000001 -1.284750 3.638268 29.547808 0.000247 -0.004765 24.164402 -0.000001 -0.000002 -0.000000 -2.714537 5.335795 33.797487 0.001121 -0.005465 26.995406 0.000001 -0.000000 -0.000003 -0.000003 0.000001 -0.000001 0.000000 0.000000 -0.000000 0.000000 0.000000 -0.000000 0.000000 0.000000 0.000000 0.000000 0.000000 0.000000 0.000000 0.000000 -0.000000 0.000000 0.000000 -0.000000 0.000000 0.000000 0.000000 0.000000 0.000000 0.000000 0.000000 0.000000 -0.000000 0.000000 0.000000 -0.000000 -0.000000 0.000000 0.000000 -0.000000 0.000000 0.000000 -0.000000 0.000000 0.000000 
-0.238723 69.833160 3.986486 0.164778 -0.435088 -1.947039 -0.000000 0.000000 0.000000 -30.635014 3.866514 3.149364 49.421825 20.921095 1.080282 -3.820822 -5.972545 -8.699578 0.000000 -0.000000 0.000000 -0.000000 -0.000000 -0.000000 -6.384967 -3.849521 6.210172 25.982019 6.517295 1.116179 -16.238368 2.045349 -9.947161 -0.000000 0.000000 -0.000000 0.000000 0.000000 0.000001 10.344107 1.062160 2.543409 -3.474673 1.089704 -1.437464 -3.450014 1.083261 -1.448292 0.852959 -1.623060 3.734266 -7.913052 0.035975 -2.545909 0.000000 -0.000000 0.000000 0.000000 -0.000000 0.000000 0.000000 -0.000000 0.000000 0.000000 -0.000000 0.000000 0.000000 -0.000000 0.000000 0.000000 -0.000000 0.000000 0.000000 -0.000000 0.000000 0.000000 -0.000000 0.000000 0.000000 -0.000000 0.000000 2.228021 2.732955 -0.509229 -3.017303 -7.175559 -74.388027 14.624039 -8.262941 -9.560554 -0.248134 0.800636 11.426052 -5.033140 13.470683 11.466265 3.182746 7.649819 1.691196 0.000002 -0.000000 -0.000002 0.746422 -4.878203 -24.533469 -0.035578 0.056017 -21.156448 0.000003 0.000002 -0.000002 -0.434059 -4.713745 -28.097317 0.001857 0.003112 -23.518792 -0.000001 0.000000 0.000001 -1.743208 -5.668230 -33.135498 -0.007544 0.009863 -26.900920 0.000000 0.000001 -0.000002 -3.418319 -6.707463 -37.999938 -0.009180 0.004914 -30.136304 0.000002 -0.000001 0.000005 0.000003 0.000000 -0.000000 3.391197 0.752201 4.779989 -2.865742 25.281612 70.201401 6.180540 22.697637 4.167632 -17.087760 0.673717 -13.855536 -0.537787 -18.705641 -4.451554 4.085033 -9.909322 -2.109013 0.000003 -0.000001 0.000002 -0.101949 4.417663 29.887125 -0.032676 -0.058286 23.972663 -0.000001 0.000000 -0.000001 -1.049224 3.266182 32.469548 -0.000480 0.001817 25.728918 0.000000 0.000002 0.000001 -2.060393 2.941436 38.232814 -0.000670 -0.005804 29.643277 0.000001 0.000000 0.000002 -3.330932 2.401865 44.888041 0.001760 -0.006726 34.176689 -0.000001 0.000003 -0.000001 0.000001 -0.000001 0.000002 -0.000000 0.000000 0.000000 -0.000000 0.000000 -0.000000 -0.000000 0.000000 0.000000 -0.000000 0.000000 0.000000 -0.000000 0.000000 0.000000 -0.000000 0.000000 -0.000000 -0.000000 0.000000 0.000000 -0.000000 0.000000 0.000000 -0.000000 0.000000 0.000000 -0.000000 0.000000 -0.000000 -0.000000 0.000000 0.000000 -0.000000 0.000000 0.000000 -0.000000 0.000000 0.000000 
-0.311738 69.764862 6.509459 1.242056 -0.721702 -1.815724 -0.000000 0.000000 -0.000000 -31.792751 2.596435 2.563853 37.557991 22.230708 1.165285 -0.716506 -6.591425 -10.531352 -0.000000 -0.000001 0.000001 0.000003 -0.000000 -0.000000 -4.486916 -3.399600 6.238232 24.784439 6.325256 1.082020 -17.626770 2.172688 -9.939172 -0.000000 0.000000 0.000000 -0.000000 0.000000 -0.000001 8.830744 1.069452 2.192565 -2.996707 1.253553 -1.678869 -2.976989 1.253247 -1.668442 1.004583 -1.649470 3.641192 -8.835525 -0.011432 -2.744259 0.000000 0.000000 0.000000 0.000000 0.000000 0.000000 0.000000 0.000000 0.000000 0.000000 0.000000 0.000000 0.000000 0.000000 0.000000 0.000000 0.000000 0.000000 0.000000 0.000000 0.000000 0.000000 0.000000 0.000000 0.000000 0.000000 0.000000 2.141538 2.861533 0.010953 -2.301843 -5.819602 -74.536960 17.044998 -6.909964 -9.967672 -0.200880 0.425639 10.852175 -5.085807 13.538433 11.628442 2.804257 6.712574 1.507424 -0.000001 0.000001 -0.000004 1.116807 -3.451929 -23.704870 -0.036654 0.055061 -20.014703 0.000001 0.000001 0.000000 -0.191830 -3.782883 -27.018915 -0.001049 0.003244 -22.232493 0.000001 0.000001 0.000001 -1.578471 -5.081673 -31.955757 -0.007313 0.005302 -25.554424 -0.000002 0.000000 -0.000002 -3.378469 -6.486967 -36.739103 -0.009241 0.001740 -28.738888 0.000000 -0.000001 0.000001 -0.000002 0.000000 -0.000000 3.313701 1.332432 5.223784 -4.325857 24.718750 69.725597 5.793632 25.450996 3.180015 -14.846540 -0.086231 -15.023109 -0.341425 -16.492678 -3.764666 3.601363 -8.687833 -1.883641 0.000004 -0.000002 -0.000002 -0.672812 6.313794 32.273474 -0.031557 -0.059130 25.082949 -0.000001 -0.000000 -0.000002 -1.682818 5.148278 34.634045 0.001753 0.000231 26.678447 0.000000 0.000002 -0.000001 -2.784309 5.024319 40.767459 -0.000382 -0.006918 30.826775 0.000004 -0.000001 -0.000000 -4.009262 4.512061 47.962531 0.004640 -0.007609 35.725113 0.000002 0.000000 0.000002 0.000001 -0.000001 0.000001 -0.000001 0.000000 0.000000 -0.000000 -0.000000 -0.000000 -0.000001 0.000000 0.000000 -0.000001 0.000000 0.000000 -0.000001 0.000000 0.000000 -0.000000 -0.000000 -0.000000 -0.000001 0.000000 0.000000 -0.000001 0.000000 0.000000 -0.000001 0.000000 0.000000 -0.000000 -0.000000 -0.000000 -0.000000 0.000000 -0.000000 -0.000000 0.000000 -0.000000 -0.000000 0.000000 -0.000000 
-0.357396 69.674805 9.061590 1.378241 -1.032772 -1.893911 -0.000000 -0.000000 0.000000 -31.625108 1.766054 2.752401 26.854854 15.202292 0.882892 1.180427 -4.408711 -12.217688 0.000000 0.000000 0.000000 -0.000002 -0.000000 -0.000000 -1.181782 -2.675092 6.462392 22.730181 6.103290 1.037254 -18.634909 2.238889 -9.848656 0.000000 -0.000000 -0.000000 -0.000000 0.000000 -0.000000 8.912339 1.106537 2.120530 -2.890279 1.399966 -2.090184 -2.863570 1.354670 -2.104026 1.842203 -1.651022 3.814723 -10.449512 -0.156961 -2.234666 0.000000 -0.000000 0.000000 0.000000 -0.000000 0.000000 0.000000 -0.000000 0.000000 0.000000 -0.000000 0.000000 0.000000 -0.000000 -0.000000 0.000000 -0.000000 0.000000 0.000000 -0.000000 -0.000000 0.000000 -0.000000 0.000000 0.000000 -0.000000 0.000000 2.037814 3.332470 0.694712 -0.992053 -4.486068 -74.603998 18.991254 -7.073603 -10.044720 -0.268550 1.197357 9.607653 -5.140755 13.608843 11.797596 2.398061 5.712751 1.303557 0.000002 -0.000000 0.000000 1.461125 -1.927883 -22.828470 -0.037777 0.054041 -18.803635 -0.000000 0.000001 -0.000004 0.023631 -2.789700 -25.874297 -0.001119 0.002877 -20.864814 0.000002 0.000000 -0.000001 -1.432757 -4.454526 -30.702858 -0.006724 0.005002 -24.124525 -0.000002 0.000000 -0.000003 -3.350510 -6.254170 -35.403654 -0.009292 0.001193 -27.246470 -0.000000 0.000001 0.000003 0.000002 0.000000 -0.000000 3.227850 1.986620 5.843913 -5.866484 24.106272 69.330122 5.859335 27.836557 2.037732 -13.016537 -1.522522 -15.261499 -0.189356 -14.067826 -3.071655 3.079738 -7.385378 -1.634507 -0.000000 -0.000001 -0.000002 -0.923269 7.710916 32.774598 -0.031733 -0.059013 24.913192 0.000007 -0.000002 0.000002 -2.224456 7.266185 34.688096 0.000862 0.000819 26.174731 -0.000000 0.000003 0.000003 -3.705820 8.110404 40.607650 -0.000556 -0.005904 30.128972 -0.000001 -0.000001 0.000002 -5.371349 8.454476 47.569156 0.004224 -0.006764 34.806733 -0.000001 0.000006 0.000003 0.000003 -0.000002 0.000002 -0.000000 -0.000000 0.000000 -0.000000 -0.000000 0.000000 -0.000000 -0.000000 0.000000 -0.000000 -0.000000 0.000000 -0.000000 -0.000000 0.000000 -0.000000 -0.000000 0.000000 -0.000000 -0.000000 0.000000 -0.000000 -0.000000 0.000000 -0.000000 -0.000000 0.000000 -0.000000 -0.000000 0.000000 -0.000000 -0.000000 0.000000 -0.000000 -0.000000 0.000000 -0.000000 -0.000000 0.000000 
